<?xml version="1.0" standalone="no"?>
<!DOCTYPE svg PUBLIC "-//W3C//DTD SVG 20010904//EN"
 "http://www.w3.org/TR/2001/REC-SVG-20010904/DTD/svg10.dtd">
<svg version="1.0" xmlns="http://www.w3.org/2000/svg"
 width="700.000000pt" height="700.000000pt" viewBox="0 0 700.000000 700.000000"
 preserveAspectRatio="xMidYMid meet">
<metadata>
Created by potrace 1.14, written by Peter Selinger 2001-2017
</metadata>
<g transform="translate(0.000000,700.000000) scale(0.100000,-0.100000)"
fill="#000000" stroke="none">
<path d="M3289 6906 c-2 -2 -40 -6 -84 -10 -82 -5 -187 -19 -285 -36 -30 -5
-68 -12 -85 -14 -16 -3 -84 -19 -150 -36 -66 -17 -129 -33 -140 -35 -45 -10
-266 -90 -370 -133 -131 -55 -296 -138 -425 -215 -98 -58 -329 -219 -376 -262
-7 -5 -31 -26 -55 -45 -106 -86 -267 -242 -378 -367 -125 -142 -300 -381 -367
-503 -10 -19 -24 -42 -31 -50 -13 -17 -173 -335 -173 -345 0 -3 -11 -30 -24
-59 -62 -135 -177 -527 -200 -680 -4 -21 -8 -48 -11 -60 -2 -12 -6 -39 -9 -61
-3 -22 -7 -58 -11 -80 -13 -90 -16 -151 -20 -370 -3 -243 11 -452 45 -630 5
-27 12 -63 15 -80 10 -63 65 -274 95 -370 80 -250 246 -606 360 -774 9 -15 41
-62 70 -106 248 -372 618 -730 1008 -973 111 -70 161 -98 303 -169 150 -74
243 -113 419 -174 210 -74 562 -148 790 -166 178 -15 590 -8 710 11 14 3 75
12 135 21 201 30 554 126 698 189 18 7 68 29 112 47 218 92 502 257 700 408
488 372 876 875 1100 1426 67 163 152 438 180 580 30 152 43 242 62 405 15
140 8 570 -12 720 -13 99 -37 249 -45 280 -5 19 -11 46 -14 60 -20 113 -90
338 -156 506 -197 494 -513 945 -900 1287 -30 27 -66 58 -80 71 -89 81 -313
238 -483 338 -86 50 -338 178 -352 178 -3 0 -24 9 -48 19 -249 111 -567 192
-972 246 -47 7 -540 16 -546 11z m436 -400 c33 -3 87 -8 120 -11 296 -27 665
-136 970 -285 765 -374 1320 -1029 1569 -1852 85 -282 124 -569 121 -888 -2
-148 -5 -201 -21 -335 -4 -35 -36 -224 -48 -280 -45 -215 -165 -546 -265 -730
-176 -324 -316 -513 -560 -755 -385 -382 -864 -652 -1381 -780 -63 -15 -131
-31 -150 -34 -19 -3 -46 -8 -60 -11 -14 -3 -44 -8 -66 -11 -23 -2 -52 -7 -65
-9 -103 -20 -515 -27 -674 -12 -473 45 -949 210 -1347 468 -62 41 -115 76
-118 79 -3 3 -32 25 -65 50 -102 75 -195 158 -326 290 -363 364 -622 812 -759
1309 -32 115 -65 274 -75 361 -4 30 -9 58 -11 61 -8 13 -19 226 -19 379 0 142
9 312 20 368 1 9 6 42 10 72 4 30 9 64 11 75 56 305 140 558 276 829 390 781
1106 1356 1955 1570 102 26 231 51 318 62 28 3 59 8 70 10 11 3 74 7 140 10
66 4 121 7 122 8 5 4 250 -3 308 -8z"/>
<path d="M3251 6319 c-29 -4 -81 -10 -115 -13 -320 -29 -777 -188 -1091 -379
-514 -312 -934 -800 -1150 -1332 -20 -49 -40 -99 -45 -110 -17 -37 -71 -219
-96 -320 -46 -188 -77 -443 -77 -640 0 -160 18 -387 39 -490 3 -11 7 -36 10
-55 3 -19 10 -53 16 -75 5 -22 11 -47 13 -55 42 -211 175 -546 301 -757 11
-17 32 -53 48 -80 93 -156 248 -347 410 -508 328 -326 695 -549 1135 -689 105
-33 209 -61 271 -72 14 -2 36 -7 50 -9 71 -14 98 -19 190 -30 184 -24 533 -23
690 1 272 42 411 75 617 150 259 94 502 226 733 398 30 22 57 43 60 46 3 3 34
30 70 60 222 187 415 413 577 675 186 299 339 715 379 1025 3 25 7 52 9 60 3
8 7 40 10 70 21 198 21 470 0 629 -3 20 -8 63 -11 96 -3 33 -8 63 -10 66 -2 3
-6 21 -9 40 -4 19 -8 43 -10 54 -10 50 -26 121 -37 159 -6 22 -12 46 -14 52
-7 36 -91 268 -123 343 -41 91 -117 242 -151 299 -11 17 -28 45 -37 62 -32 54
-137 204 -182 260 -305 381 -687 673 -1123 858 -145 62 -388 139 -498 158 -14
3 -56 11 -95 19 -38 7 -97 16 -130 20 -33 4 -73 9 -90 12 -56 8 -480 10 -534
2z m484 -173 c122 -13 192 -23 283 -42 42 -9 87 -18 98 -20 12 -2 62 -15 110
-29 761 -218 1403 -783 1713 -1506 63 -150 130 -357 155 -481 14 -66 16 -79
21 -106 3 -15 8 -45 11 -67 2 -22 7 -50 9 -61 24 -113 23 -514 -1 -674 -43
-286 -98 -490 -191 -710 -43 -101 -138 -288 -173 -340 -9 -14 -42 -63 -73
-110 -187 -283 -478 -566 -768 -748 -92 -57 -229 -132 -242 -132 -6 0 -18 -6
-26 -14 -18 -15 -206 -91 -326 -131 -128 -43 -334 -89 -495 -110 -42 -6 -227
-18 -290 -19 l-45 -1 -3 88 -3 87 83 1 c46 0 90 2 98 3 8 2 47 6 85 10 39 3
81 8 95 11 14 2 42 6 62 9 242 36 673 195 829 307 15 10 30 19 34 19 16 0 246
166 325 235 81 70 216 205 268 268 31 38 67 81 80 95 13 15 61 83 107 152 174
262 292 540 358 840 45 204 52 281 52 550 -1 303 -34 510 -123 770 -152 443
-421 833 -772 1121 -36 30 -67 56 -70 60 -16 19 -261 175 -350 222 -197 104
-434 192 -635 233 -191 39 -337 54 -530 54 -77 0 -162 -2 -190 -5 -87 -8 -149
-15 -171 -19 -12 -3 -38 -7 -58 -10 -139 -22 -335 -76 -465 -127 -40 -17 -75
-28 -77 -26 -4 4 -64 148 -64 153 0 16 353 130 465 150 17 3 48 9 70 14 22 5
63 12 90 16 28 3 59 8 70 10 11 3 65 7 120 10 55 3 101 7 102 8 5 5 291 -2
348 -8z m691 -1059 c2 -1 -43 -72 -99 -158 -56 -85 -181 -275 -277 -422 -96
-147 -233 -356 -305 -465 -71 -109 -204 -311 -295 -450 -91 -139 -220 -337
-288 -440 -68 -103 -180 -275 -250 -382 -70 -107 -131 -199 -135 -205 -5 -5
-76 -113 -158 -240 -83 -126 -185 -283 -227 -347 l-77 -116 -55 -4 c-30 -2
-80 -1 -111 2 l-56 5 166 252 c91 139 236 360 321 490 85 131 210 321 277 423
188 286 464 709 746 1140 88 135 219 335 292 445 161 245 185 282 185 292 0 5
-426 8 -947 8 l-948 0 0 85 c-1 47 2 87 6 90 7 5 2230 3 2235 -3z m479 0 c1
-1 -55 -88 -124 -192 -69 -105 -198 -300 -286 -434 -88 -135 -227 -347 -310
-473 -82 -125 -213 -324 -289 -440 -77 -117 -203 -310 -281 -428 -78 -118
-166 -253 -197 -300 -30 -47 -136 -206 -234 -355 -98 -148 -181 -274 -183
-279 -2 -4 -23 -37 -47 -72 l-44 -64 73 -1 c39 0 479 -1 977 -2 l905 -2 0 -88
c0 -49 -3 -91 -7 -93 -8 -5 -2279 -7 -2284 -1 -2 2 11 26 30 53 32 46 324 494
481 737 39 59 106 162 150 230 44 67 152 232 240 367 87 135 205 315 260 400
56 85 127 193 157 240 30 47 102 157 160 245 57 88 131 201 163 250 63 97 142
218 308 472 58 89 117 179 130 200 l24 38 113 -3 c63 -1 114 -3 115 -5z"/>
</g>
</svg>
